<svg xmlns="http://www.w3.org/2000/svg" viewBox="0 0 500 500"><g id="freepik--coin--inject-24"><g id="freepik--coin--inject-24"><path d="M444.29,420.22a26.42,26.42,0,0,0-9.77-9c-16-9.22-41.86-9.22-57.84,0a26.5,26.5,0,0,0-9.77,9h-2.2v8.36h0c.3,5.8,4.27,11.56,11.95,16,16,9.22,41.87,9.22,57.84,0,7.68-4.44,11.69-10.2,12-16h0v-8.36Z" style="fill:#263238"></path><path d="M444.29,420.22a26.42,26.42,0,0,0-9.77-9c-16-9.22-41.86-9.22-57.84,0a26.5,26.5,0,0,0-9.77,9h-2.2v8.36h0c.3,5.8,4.27,11.56,11.95,16,16,9.22,41.87,9.22,57.84,0,7.68-4.44,11.69-10.2,12-16h0v-8.36Z" style="opacity:0.25"></path><path d="M405.61,404.27c-10.47,0-20.94,2.3-28.93,6.91a26.5,26.5,0,0,0-9.77,9h-2.2v8.36h0c.3,5.8,4.27,11.56,11.95,16,8,4.61,18.46,6.91,28.93,6.91Z" style="opacity:0.1"></path><path d="M383.27,408.1a45.25,45.25,0,0,0-6.59,3.08,26.5,26.5,0,0,0-9.77,9h-2.2v8.36h0c.3,5.8,4.27,11.56,11.95,16a45.25,45.25,0,0,0,6.59,3.08Z" style="opacity:0.1"></path><path d="M427.94,408.1a44.65,44.65,0,0,1,6.58,3.08,26.42,26.42,0,0,1,9.77,9h2.21v8.36h0c-.29,5.81-4.3,11.57-12,16a44.65,44.65,0,0,1-6.58,3.08Z" style="fill:#263238;opacity:0.5"></path><path d="M376.68,403.53c-16,9.22-16,24.17,0,33.39,14,8.07,35.55,9.08,51.43,3h0l.63-.25a45.36,45.36,0,0,0,5.78-2.78c13.32-7.69,15.54-19.36,6.64-28.38h0a30.68,30.68,0,0,0-6.63-5C418.55,394.31,392.66,394.3,376.68,403.53Z" style="fill:#263238"></path><path d="M376.68,403.53c-16,9.22-16,24.17,0,33.39,14,8.07,35.55,9.08,51.43,3h0l.63-.25a45.36,45.36,0,0,0,5.78-2.78c13.32-7.69,15.54-19.36,6.64-28.38h0a30.68,30.68,0,0,0-6.63-5C418.55,394.31,392.66,394.3,376.68,403.53Z" style="opacity:0.2"></path><path d="M441.16,408.54a17.9,17.9,0,0,1,4.28,14.57c-1.42,8.12-12.78,14.95-16.7,16.59a45.36,45.36,0,0,0,5.78-2.78C447.84,429.23,450.06,417.56,441.16,408.54Z" style="fill:#f5f5f5;opacity:0.5"></path><path d="M370.05,431.9a17.87,17.87,0,0,1-4.28-14.57c1.42-8.11,12.78-14.94,16.7-16.58a44.19,44.19,0,0,0-5.79,2.78C363.37,411.22,361.15,422.89,370.05,431.9Z" style="fill:#f5f5f5;opacity:0.5"></path><ellipse cx="405.62" cy="420.19" rx="38.02" ry="21.95" style="fill:#263238"></ellipse><ellipse cx="405.62" cy="420.19" rx="38.02" ry="21.95" style="fill:#fff;opacity:0.4"></ellipse><path d="M441.91,426.75c3.06-5.65,2.06-11.88-3-17.16a25.1,25.1,0,0,0-3.23-2.82,31.41,31.41,0,0,0-3.07-2c-.61-.36-1.23-.69-1.88-1,1.58,2.6,1,5.39-7.95,5.91-17.52,1,4.68,17.77,4.68,17.77S438.78,422,441.91,426.75Z" style="fill:#fff;opacity:0.2"></path><path d="M440.1,422.11c2.63-.29,3.94-3,2.91-6s-4-5.27-6.61-5-3.93,3-2.91,6S437.47,422.41,440.1,422.11Z" style="fill:#fff;opacity:0.5"></path><path d="M412.39,436.07c-.87-6.51-29.31-24.52-29.31-24.52s-6.31-2.53-4.22-6.94a33.12,33.12,0,0,0-3,2c-.65.48-1.27,1-1.85,1.47-8.46,7.33-8.47,17,0,24.3.57.5,1.19,1,1.84,1.47.88.63,1.81,1.24,2.82,1.83s2,1.09,3,1.58c.83.39,1.69.76,2.56,1.11s1.76.66,2.67,1a56.13,56.13,0,0,0,8.48,2l1.91.27a66.63,66.63,0,0,0,8.49.54,64,64,0,0,0,10.38-.86S411.57,440.35,412.39,436.07Z" style="fill:#263238"></path><path d="M412.39,436.07c-.87-6.51-29.31-24.52-29.31-24.52s-6.31-2.53-4.22-6.94a33.12,33.12,0,0,0-3,2c-.65.48-1.27,1-1.85,1.47-8.46,7.33-8.47,17,0,24.3.57.5,1.19,1,1.84,1.47.88.63,1.81,1.24,2.82,1.83s2,1.09,3,1.58c.83.39,1.69.76,2.56,1.11s1.76.66,2.67,1a56.13,56.13,0,0,0,8.48,2l1.91.27a66.63,66.63,0,0,0,8.49.54,64,64,0,0,0,10.38-.86S411.57,440.35,412.39,436.07Z" style="fill:#fff;opacity:0.30000000000000004"></path><path d="M385.58,408.63c-10.61,6.12-11,15.9-1.3,22.32.42.27.85.54,1.3.8,11.06,6.39,29,6.39,40.05,0s11.07-16.74,0-23.12c-.45-.26-.92-.51-1.39-.75C413.12,402.25,396.19,402.5,385.58,408.63Z" style="fill:#263238"></path><path d="M385.58,408.63c-10.61,6.12-11,15.9-1.3,22.32.42.27.85.54,1.3.8,11.06,6.39,29,6.39,40.05,0s11.07-16.74,0-23.12c-.45-.26-.92-.51-1.39-.75C413.12,402.25,396.19,402.5,385.58,408.63Z" style="opacity:0.2"></path><ellipse cx="405.62" cy="420.19" rx="27.07" ry="15.63" style="fill:#263238"></ellipse><ellipse cx="405.62" cy="420.19" rx="27.07" ry="15.63" style="opacity:0.5"></ellipse><path d="M386.48,413.5c10.57-6.11,27.71-6.11,38.28,0,4.33,2.49,6.88,5.62,7.67,8.87-.79,3.24-3.34,6.38-7.67,8.87-10.57,6.11-27.71,6.11-38.28,0-4.33-2.49-6.88-5.63-7.67-8.87C379.6,419.12,382.15,416,386.48,413.5Z" style="fill:#263238"></path><path d="M386.48,413.5c10.57-6.11,27.71-6.11,38.28,0,4.33,2.49,6.88,5.62,7.67,8.87-.79,3.24-3.34,6.38-7.67,8.87-10.57,6.11-27.71,6.11-38.28,0-4.33-2.49-6.88-5.63-7.67-8.87C379.6,419.12,382.15,416,386.48,413.5Z" style="opacity:0.35000000000000003"></path><path d="M422.67,424.9c0-.53,0-2.68,0-3.23,0-1.33-.92-2.61-2.89-3.77l-.07,0c-3.63-2.1-7.39-1.83-10.74-1h0c-1.43.36-2.78.82-4,1.24a38.77,38.77,0,0,1-4.3,1.34h0a7.49,7.49,0,0,1-2,.19,4.21,4.21,0,0,1-1.7-.45l.14-.09.42-.26a8.57,8.57,0,0,1,1.14-.56,7.83,7.83,0,0,1,6-.14l3.47-3.5v-3.22a16.57,16.57,0,0,0-9.49-.34,19.64,19.64,0,0,0-3,1l-3.47-2L388,412.52v3.21l1.41.82a3.51,3.51,0,0,0-.61,1.88c0,.53,0,2.67,0,3.2,0,1.33,1,2.61,3,3.77a12.17,12.17,0,0,0,5.72,1.64h0c.38,0,.77,0,1.15,0a23.06,23.06,0,0,0,6.14-1.33l1.2-.41-3.5,3.5V432a17,17,0,0,0,13.39-.58l3.43,2,4.14-2.39v-3.21L422,427A3.81,3.81,0,0,0,422.67,424.9Zm-8.74-.28a8.59,8.59,0,0,1-1,.48,8.87,8.87,0,0,1-6.77.1c3.24-1.14,5.95-2.14,8.26-.91C414.3,424.4,414.12,424.51,413.93,424.62Z" style="fill:#263238"></path><path d="M409,416.88h0c-1.43.36-2.78.82-4,1.24a38.77,38.77,0,0,1-4.3,1.34h0a7.49,7.49,0,0,1-2,.19,4.33,4.33,0,0,1-2-.58c-1.34-.77-1.53-1.9.41-3.17a4.28,4.28,0,0,1,.42-.26,10.1,10.1,0,0,1,1.14-.57,7.82,7.82,0,0,1,6-.13l3.47-3.51a16.57,16.57,0,0,0-9.49-.34,19.64,19.64,0,0,0-3,1l-3.47-2L388,412.52l3.43,2,0,0c-3.48,2.65-3.55,5.39.37,7.65a12.07,12.07,0,0,0,5.72,1.65h0c.38,0,.77,0,1.15,0a22.67,22.67,0,0,0,6.14-1.32c4-1.33,7.2-2.9,9.87-1.35,1.8,1,1.3,2.33-.67,3.47a8.59,8.59,0,0,1-1,.48,8.9,8.9,0,0,1-6.9,0l-3.64,3.65a17,17,0,0,0,13.39-.58l3.43,2,4.14-2.39-3.43-2c3.45-2.67,3.84-5.57-.18-7.93l-.07,0C416.08,415.76,412.32,416,409,416.88Z" style="fill:#263238"></path><g style="opacity:0.30000000000000004"><path d="M409,416.88h0c-1.43.36-2.78.82-4,1.24a38.77,38.77,0,0,1-4.3,1.34h0a7.49,7.49,0,0,1-2,.19,4.33,4.33,0,0,1-2-.58c-1.34-.77-1.53-1.9.41-3.17a4.28,4.28,0,0,1,.42-.26,10.1,10.1,0,0,1,1.14-.57,7.82,7.82,0,0,1,6-.13l3.47-3.51a16.57,16.57,0,0,0-9.49-.34,19.64,19.64,0,0,0-3,1l-3.47-2L388,412.52l3.43,2,0,0c-3.48,2.65-3.55,5.39.37,7.65a12.07,12.07,0,0,0,5.72,1.65h0c.38,0,.77,0,1.15,0a22.67,22.67,0,0,0,6.14-1.32c4-1.33,7.2-2.9,9.87-1.35,1.8,1,1.3,2.33-.67,3.47a8.59,8.59,0,0,1-1,.48,8.9,8.9,0,0,1-6.9,0l-3.64,3.65a17,17,0,0,0,13.39-.58l3.43,2,4.14-2.39-3.43-2c3.45-2.67,3.84-5.57-.18-7.93l-.07,0C416.08,415.76,412.32,416,409,416.88Z" style="fill:#fff"></path></g><polygon points="387.96 412.52 392.14 410.63 395.57 412.13 392.1 410.13 387.96 412.52" style="fill:#f5f5f5;opacity:0.45"></polygon><path d="M398.11,411.22a19.43,19.43,0,0,1,8.9.3l-2.4,3.42,3.47-3.51A16.62,16.62,0,0,0,398.11,411.22Z" style="fill:#f5f5f5;opacity:0.45"></path><path d="M419.71,417.86l.07,0c4,2.36,3.63,5.26.18,7.93,3.05-3.33,2.5-5.65-.81-7.56s-7.55-1.89-10.18-1.39C412.32,416,416.08,415.76,419.71,417.86Z" style="fill:#f5f5f5;opacity:0.45"></path><polygon points="419.96 425.83 422.59 427.85 419.25 430.2 423.39 427.81 419.96 425.83" style="fill:#f5f5f5;opacity:0.45"></polygon><path d="M413,425.1a8.89,8.89,0,0,1-6.6.58l-3.94,3.12,3.64-3.65A8.9,8.9,0,0,0,413,425.1Z" style="fill:#f5f5f5;opacity:0.45"></path><path d="M400.63,419.46c-1.57.61-3.82.51-5-.47s-.43-2.13,1.36-3.09c-1.94,1.27-1.75,2.4-.41,3.17a4.33,4.33,0,0,0,2,.58A7.49,7.49,0,0,0,400.63,419.46Z" style="fill:#f5f5f5;opacity:0.45"></path><path d="M391.35,414.53c-.29.26-2.78,2.58-1.68,4.91,1.17,2.48,4.82,4.07,7.77,4.39h0a12.07,12.07,0,0,1-5.72-1.65C387.8,419.92,387.87,417.18,391.35,414.53Z" style="fill:#f5f5f5;opacity:0.45"></path></g></g></svg>
